<mxfile host="app.diagrams.net" modified="2020-12-15T06:59:42.987Z" agent="5.0 (Windows NT 6.1; Win64; x64) AppleWebKit/537.36 (KHTML, like Gecko) Chrome/84.0.4147.125 Safari/537.36" etag="Hy0tV-nJxHwF4EvVxFVh" version="14.0.1" type="github">
  <diagram name="Page-1" id="c7558073-3199-34d8-9f00-42111426c3f3">
    <mxGraphModel dx="1422" dy="762" grid="1" gridSize="10" guides="1" tooltips="1" connect="1" arrows="1" fold="1" page="1" pageScale="1" pageWidth="826" pageHeight="1169" background="#ffffff" math="0" shadow="0">
      <root>
        <mxCell id="0" />
        <mxCell id="1" parent="0" />
        <mxCell id="QnyoHMYIOxJ9Nuu8RVVF-103" value="" style="rounded=0;whiteSpace=wrap;html=1;fillColor=#d5e8d4;strokeColor=none;" vertex="1" parent="1">
          <mxGeometry x="40" y="110" width="550" height="700" as="geometry" />
        </mxCell>
        <mxCell id="QnyoHMYIOxJ9Nuu8RVVF-104" value="" style="rounded=0;whiteSpace=wrap;html=1;fillColor=#ffe6cc;strokeColor=none;" vertex="1" parent="1">
          <mxGeometry x="590" y="110" width="550" height="700" as="geometry" />
        </mxCell>
        <mxCell id="QnyoHMYIOxJ9Nuu8RVVF-105" value="&lt;b&gt;&lt;font style=&quot;font-size: 16px&quot;&gt;previewPlayer&lt;/font&gt;&lt;/b&gt;" style="text;html=1;strokeColor=none;fillColor=none;align=center;verticalAlign=middle;whiteSpace=wrap;rounded=0;" vertex="1" parent="1">
          <mxGeometry x="295" y="130" width="40" height="20" as="geometry" />
        </mxCell>
        <mxCell id="QnyoHMYIOxJ9Nuu8RVVF-106" value="&lt;b&gt;&lt;font style=&quot;font-size: 16px&quot;&gt;playbackPlayer&lt;/font&gt;&lt;/b&gt;" style="text;html=1;strokeColor=none;fillColor=none;align=center;verticalAlign=middle;whiteSpace=wrap;rounded=0;" vertex="1" parent="1">
          <mxGeometry x="845" y="130" width="40" height="20" as="geometry" />
        </mxCell>
        <mxCell id="QnyoHMYIOxJ9Nuu8RVVF-107" value="" style="rounded=0;whiteSpace=wrap;html=1;fillColor=#cce5ff;strokeColor=none;" vertex="1" parent="1">
          <mxGeometry x="40" y="230" width="440" height="290" as="geometry" />
        </mxCell>
        <mxCell id="QnyoHMYIOxJ9Nuu8RVVF-108" value="" style="rounded=0;whiteSpace=wrap;html=1;fillColor=#f8cecc;strokeColor=none;" vertex="1" parent="1">
          <mxGeometry x="480" y="230" width="220" height="580" as="geometry" />
        </mxCell>
        <mxCell id="QnyoHMYIOxJ9Nuu8RVVF-109" value="" style="rounded=0;whiteSpace=wrap;html=1;strokeColor=none;fillColor=#fff8e5;" vertex="1" parent="1">
          <mxGeometry x="700" y="230" width="440" height="290" as="geometry" />
        </mxCell>
        <mxCell id="QnyoHMYIOxJ9Nuu8RVVF-110" value="&lt;b&gt;&lt;font style=&quot;font-size: 14px&quot;&gt;wasmplayer&lt;/font&gt;&lt;/b&gt;" style="text;html=1;strokeColor=none;fillColor=none;align=center;verticalAlign=middle;whiteSpace=wrap;rounded=0;" vertex="1" parent="1">
          <mxGeometry x="240" y="240" width="40" height="20" as="geometry" />
        </mxCell>
        <mxCell id="QnyoHMYIOxJ9Nuu8RVVF-111" value="&lt;b&gt;&lt;font style=&quot;font-size: 14px&quot;&gt;wasmplayer&lt;/font&gt;&lt;/b&gt;" style="text;html=1;strokeColor=none;fillColor=none;align=center;verticalAlign=middle;whiteSpace=wrap;rounded=0;" vertex="1" parent="1">
          <mxGeometry x="910" y="240" width="40" height="20" as="geometry" />
        </mxCell>
        <mxCell id="QnyoHMYIOxJ9Nuu8RVVF-112" value="" style="rounded=0;whiteSpace=wrap;html=1;fillColor=#DEF9FC;strokeColor=none;" vertex="1" parent="1">
          <mxGeometry x="40" y="520" width="440" height="290" as="geometry" />
        </mxCell>
        <mxCell id="QnyoHMYIOxJ9Nuu8RVVF-114" value="&lt;b&gt;&lt;font style=&quot;font-size: 14px&quot;&gt;mp4player&lt;/font&gt;&lt;/b&gt;" style="text;html=1;strokeColor=none;fillColor=none;align=center;verticalAlign=middle;whiteSpace=wrap;rounded=0;" vertex="1" parent="1">
          <mxGeometry x="240" y="530" width="40" height="20" as="geometry" />
        </mxCell>
        <mxCell id="QnyoHMYIOxJ9Nuu8RVVF-116" value="" style="rounded=0;whiteSpace=wrap;html=1;fillColor=#EEFFD4;strokeColor=none;" vertex="1" parent="1">
          <mxGeometry x="700" y="520" width="440" height="290" as="geometry" />
        </mxCell>
        <mxCell id="QnyoHMYIOxJ9Nuu8RVVF-117" value="&lt;b&gt;&lt;font style=&quot;font-size: 14px&quot;&gt;mp4player&lt;/font&gt;&lt;/b&gt;" style="text;html=1;strokeColor=none;fillColor=none;align=center;verticalAlign=middle;whiteSpace=wrap;rounded=0;" vertex="1" parent="1">
          <mxGeometry x="910" y="530" width="40" height="20" as="geometry" />
        </mxCell>
        <mxCell id="QnyoHMYIOxJ9Nuu8RVVF-119" value="" style="rounded=0;whiteSpace=wrap;html=1;fillColor=#99ccff;strokeColor=none;" vertex="1" parent="1">
          <mxGeometry x="80" y="290" width="170" height="210" as="geometry" />
        </mxCell>
        <mxCell id="QnyoHMYIOxJ9Nuu8RVVF-121" value="" style="rounded=0;whiteSpace=wrap;html=1;fillColor=#99ccff;strokeColor=none;" vertex="1" parent="1">
          <mxGeometry x="270" y="290" width="170" height="210" as="geometry" />
        </mxCell>
        <mxCell id="QnyoHMYIOxJ9Nuu8RVVF-122" value="" style="rounded=0;whiteSpace=wrap;html=1;strokeColor=none;fillColor=#5daeff;" vertex="1" parent="1">
          <mxGeometry x="105" y="320" width="120" height="170" as="geometry" />
        </mxCell>
        <mxCell id="QnyoHMYIOxJ9Nuu8RVVF-125" value="&lt;b&gt;&lt;font style=&quot;font-size: 14px&quot;&gt;worker&lt;/font&gt;&lt;/b&gt;" style="text;html=1;strokeColor=none;fillColor=none;align=center;verticalAlign=middle;whiteSpace=wrap;rounded=0;" vertex="1" parent="1">
          <mxGeometry x="145" y="340" width="40" height="20" as="geometry" />
        </mxCell>
        <mxCell id="QnyoHMYIOxJ9Nuu8RVVF-127" value="" style="rounded=0;whiteSpace=wrap;html=1;fillColor=#3399ff;strokeColor=none;" vertex="1" parent="1">
          <mxGeometry x="122.5" y="380" width="85" height="100" as="geometry" />
        </mxCell>
        <mxCell id="QnyoHMYIOxJ9Nuu8RVVF-128" value="&lt;span style=&quot;font-size: 14px&quot;&gt;&lt;b&gt;wasm decode&lt;/b&gt;&lt;/span&gt;" style="text;html=1;strokeColor=none;fillColor=none;align=center;verticalAlign=middle;whiteSpace=wrap;rounded=0;" vertex="1" parent="1">
          <mxGeometry x="145" y="413" width="40" height="20" as="geometry" />
        </mxCell>
        <mxCell id="QnyoHMYIOxJ9Nuu8RVVF-130" value="" style="rounded=0;whiteSpace=wrap;html=1;fillColor=#5DAEFF;strokeColor=none;" vertex="1" parent="1">
          <mxGeometry x="298" y="330" width="115" height="50" as="geometry" />
        </mxCell>
        <mxCell id="QnyoHMYIOxJ9Nuu8RVVF-131" value="&lt;b&gt;&lt;font style=&quot;font-size: 14px&quot;&gt;webgl canvas&lt;/font&gt;&lt;/b&gt;" style="text;html=1;strokeColor=none;fillColor=none;align=center;verticalAlign=middle;whiteSpace=wrap;rounded=0;" vertex="1" parent="1">
          <mxGeometry x="335.5" y="342" width="40" height="20" as="geometry" />
        </mxCell>
        <mxCell id="QnyoHMYIOxJ9Nuu8RVVF-135" value="" style="rounded=0;whiteSpace=wrap;html=1;fillColor=#5DAEFF;strokeColor=none;" vertex="1" parent="1">
          <mxGeometry x="298" y="420" width="115" height="50" as="geometry" />
        </mxCell>
        <mxCell id="QnyoHMYIOxJ9Nuu8RVVF-136" value="&lt;b&gt;&lt;font style=&quot;font-size: 14px&quot;&gt;websocket&lt;/font&gt;&lt;/b&gt;" style="text;html=1;strokeColor=none;fillColor=none;align=center;verticalAlign=middle;whiteSpace=wrap;rounded=0;" vertex="1" parent="1">
          <mxGeometry x="336.5" y="432" width="40" height="20" as="geometry" />
        </mxCell>
        <mxCell id="QnyoHMYIOxJ9Nuu8RVVF-139" value="" style="rounded=0;whiteSpace=wrap;html=1;strokeColor=none;fillColor=#FFF2CF;" vertex="1" parent="1">
          <mxGeometry x="730" y="290" width="170" height="210" as="geometry" />
        </mxCell>
        <mxCell id="QnyoHMYIOxJ9Nuu8RVVF-140" value="" style="rounded=0;whiteSpace=wrap;html=1;strokeColor=none;fillColor=#fff2cf;" vertex="1" parent="1">
          <mxGeometry x="920" y="290" width="170" height="210" as="geometry" />
        </mxCell>
        <mxCell id="QnyoHMYIOxJ9Nuu8RVVF-141" value="" style="rounded=0;whiteSpace=wrap;html=1;strokeColor=none;fillColor=#FFE293;" vertex="1" parent="1">
          <mxGeometry x="755" y="320" width="120" height="170" as="geometry" />
        </mxCell>
        <mxCell id="QnyoHMYIOxJ9Nuu8RVVF-142" value="&lt;b&gt;&lt;font style=&quot;font-size: 14px&quot;&gt;worker&lt;/font&gt;&lt;/b&gt;" style="text;html=1;strokeColor=none;fillColor=none;align=center;verticalAlign=middle;whiteSpace=wrap;rounded=0;" vertex="1" parent="1">
          <mxGeometry x="795" y="340" width="40" height="20" as="geometry" />
        </mxCell>
        <mxCell id="QnyoHMYIOxJ9Nuu8RVVF-143" value="" style="rounded=0;whiteSpace=wrap;html=1;strokeColor=none;fillColor=#ffd35b;" vertex="1" parent="1">
          <mxGeometry x="772.5" y="380" width="85" height="100" as="geometry" />
        </mxCell>
        <mxCell id="QnyoHMYIOxJ9Nuu8RVVF-144" value="&lt;span style=&quot;font-size: 14px&quot;&gt;&lt;b&gt;wasm decode&lt;/b&gt;&lt;/span&gt;" style="text;html=1;strokeColor=none;fillColor=none;align=center;verticalAlign=middle;whiteSpace=wrap;rounded=0;" vertex="1" parent="1">
          <mxGeometry x="795" y="410" width="40" height="20" as="geometry" />
        </mxCell>
        <mxCell id="QnyoHMYIOxJ9Nuu8RVVF-145" value="" style="rounded=0;whiteSpace=wrap;html=1;strokeColor=none;fillColor=#ffe293;" vertex="1" parent="1">
          <mxGeometry x="948" y="330" width="115" height="50" as="geometry" />
        </mxCell>
        <mxCell id="QnyoHMYIOxJ9Nuu8RVVF-146" value="&lt;b&gt;&lt;font style=&quot;font-size: 14px&quot;&gt;webgl canvas&lt;/font&gt;&lt;/b&gt;" style="text;html=1;strokeColor=none;fillColor=none;align=center;verticalAlign=middle;whiteSpace=wrap;rounded=0;" vertex="1" parent="1">
          <mxGeometry x="985.5" y="342" width="40" height="20" as="geometry" />
        </mxCell>
        <mxCell id="QnyoHMYIOxJ9Nuu8RVVF-147" value="" style="rounded=0;whiteSpace=wrap;html=1;strokeColor=none;fillColor=#FFE293;" vertex="1" parent="1">
          <mxGeometry x="948" y="420" width="115" height="50" as="geometry" />
        </mxCell>
        <mxCell id="QnyoHMYIOxJ9Nuu8RVVF-148" value="&lt;b&gt;&lt;font style=&quot;font-size: 14px&quot;&gt;websocket&lt;/font&gt;&lt;/b&gt;" style="text;html=1;strokeColor=none;fillColor=none;align=center;verticalAlign=middle;whiteSpace=wrap;rounded=0;" vertex="1" parent="1">
          <mxGeometry x="986.5" y="432" width="40" height="20" as="geometry" />
        </mxCell>
        <mxCell id="QnyoHMYIOxJ9Nuu8RVVF-150" value="" style="rounded=0;whiteSpace=wrap;html=1;fillColor=#fdb3b0;strokeColor=none;" vertex="1" parent="1">
          <mxGeometry x="520" y="272" width="140" height="218" as="geometry" />
        </mxCell>
        <mxCell id="QnyoHMYIOxJ9Nuu8RVVF-151" value="" style="rounded=0;whiteSpace=wrap;html=1;fillColor=#fdb3b0;strokeColor=none;" vertex="1" parent="1">
          <mxGeometry x="520" y="550" width="140" height="200" as="geometry" />
        </mxCell>
        <mxCell id="QnyoHMYIOxJ9Nuu8RVVF-152" value="&lt;span style=&quot;font-size: 14px&quot;&gt;&lt;b&gt;Package&lt;/b&gt;&lt;/span&gt;" style="text;html=1;strokeColor=none;fillColor=none;align=center;verticalAlign=middle;whiteSpace=wrap;rounded=0;" vertex="1" parent="1">
          <mxGeometry x="570" y="290" width="40" height="20" as="geometry" />
        </mxCell>
        <mxCell id="QnyoHMYIOxJ9Nuu8RVVF-153" value="&lt;b&gt;&lt;font style=&quot;font-size: 14px&quot;&gt;mp4&lt;/font&gt;&lt;/b&gt;" style="rounded=0;whiteSpace=wrap;html=1;fillColor=#ff9490;strokeColor=none;" vertex="1" parent="1">
          <mxGeometry x="530" y="324" width="120" height="30" as="geometry" />
        </mxCell>
        <mxCell id="QnyoHMYIOxJ9Nuu8RVVF-154" value="&lt;b&gt;&lt;font style=&quot;font-size: 14px&quot;&gt;websoket&lt;/font&gt;&lt;/b&gt;" style="rounded=0;whiteSpace=wrap;html=1;fillColor=#ff9490;strokeColor=none;" vertex="1" parent="1">
          <mxGeometry x="530" y="365" width="120" height="30" as="geometry" />
        </mxCell>
        <mxCell id="QnyoHMYIOxJ9Nuu8RVVF-155" value="&lt;b&gt;&lt;font style=&quot;font-size: 14px&quot;&gt;webgl&lt;/font&gt;&lt;/b&gt;" style="rounded=0;whiteSpace=wrap;html=1;fillColor=#ff9490;strokeColor=none;" vertex="1" parent="1">
          <mxGeometry x="530" y="406" width="120" height="30" as="geometry" />
        </mxCell>
        <mxCell id="QnyoHMYIOxJ9Nuu8RVVF-156" value="&lt;b&gt;&lt;font style=&quot;font-size: 14px&quot;&gt;streamaxframe&lt;/font&gt;&lt;/b&gt;" style="rounded=0;whiteSpace=wrap;html=1;fillColor=#ff9490;strokeColor=none;" vertex="1" parent="1">
          <mxGeometry x="530" y="447" width="120" height="30" as="geometry" />
        </mxCell>
        <mxCell id="QnyoHMYIOxJ9Nuu8RVVF-157" value="&lt;span style=&quot;font-size: 14px&quot;&gt;&lt;b&gt;utils&lt;/b&gt;&lt;/span&gt;" style="text;html=1;strokeColor=none;fillColor=none;align=center;verticalAlign=middle;whiteSpace=wrap;rounded=0;" vertex="1" parent="1">
          <mxGeometry x="570" y="565" width="40" height="20" as="geometry" />
        </mxCell>
        <mxCell id="QnyoHMYIOxJ9Nuu8RVVF-158" value="&lt;b&gt;&lt;font style=&quot;font-size: 14px&quot;&gt;logger&lt;/font&gt;&lt;/b&gt;" style="rounded=0;whiteSpace=wrap;html=1;fillColor=#ff9490;strokeColor=none;" vertex="1" parent="1">
          <mxGeometry x="530" y="593" width="120" height="30" as="geometry" />
        </mxCell>
        <mxCell id="QnyoHMYIOxJ9Nuu8RVVF-159" value="&lt;b&gt;&lt;font style=&quot;font-size: 14px&quot;&gt;convert&lt;/font&gt;&lt;/b&gt;" style="rounded=0;whiteSpace=wrap;html=1;fillColor=#ff9490;strokeColor=none;" vertex="1" parent="1">
          <mxGeometry x="530" y="640" width="120" height="30" as="geometry" />
        </mxCell>
        <mxCell id="QnyoHMYIOxJ9Nuu8RVVF-160" value="&lt;b&gt;&lt;font style=&quot;font-size: 14px&quot;&gt;time&lt;/font&gt;&lt;/b&gt;" style="rounded=0;whiteSpace=wrap;html=1;fillColor=#ff9490;strokeColor=none;" vertex="1" parent="1">
          <mxGeometry x="530" y="690" width="120" height="30" as="geometry" />
        </mxCell>
      </root>
    </mxGraphModel>
  </diagram>
</mxfile>
